<svg width="22" height="22" viewBox="0 0 22 22" fill="none" xmlns="http://www.w3.org/2000/svg">
<g id="Group 244">
<g id="Group 166">
<path id="Vector" d="M8 21H14C19 21 21 19 21 14V8C21 3 19 1 14 1H8C3 1 1 3 1 8V14C1 19 3 21 8 21Z" stroke="black" stroke-width="1.5" stroke-linecap="round" stroke-linejoin="round"/>
</g>
<path id="Vector_2" d="M8.33333 4.3335V6.3335M13.6667 4.3335V6.3335M5.33333 9.06016H16.6667M17 8.66683V14.3335C17 16.3335 16 17.6668 13.6667 17.6668H8.33333C6 17.6668 5 16.3335 5 14.3335V8.66683C5 6.66683 6 5.3335 8.33333 5.3335H13.6667C16 5.3335 17 6.66683 17 8.66683Z" stroke="black" stroke-width="1.5" stroke-miterlimit="10" stroke-linecap="round" stroke-linejoin="round"/>
<path id="Vector_3" d="M13.4633 12.1333H13.4693M13.4633 14.1333H13.4693M10.9966 12.1333H11.0033M10.9966 14.1333H11.0033M8.5293 12.1333H8.53596M8.5293 14.1333H8.53596" stroke="black" stroke-width="2" stroke-linecap="round" stroke-linejoin="round"/>
</g>
</svg>
