<svg width="15" height="15" viewBox="0 0 15 15" fill="none" xmlns="http://www.w3.org/2000/svg">
<g id="Iconsax/Linear/keyboardopen">
<path id="Vector" d="M8.48789 5.2H10.7879M4.21289 8.81875H10.7941M4.37539 13.75H10.6254M4.53789 1.25H10.4566C10.8629 1.25 11.2254 1.2625 11.5504 1.30625C13.2816 1.5 13.7504 2.3125 13.7504 4.5375V8.4875C13.7504 10.7125 13.2816 11.525 11.5504 11.7188C11.2254 11.7625 10.8691 11.775 10.4566 11.775H4.53789C4.13164 11.775 3.76914 11.7625 3.44414 11.7188C1.71289 11.525 1.24414 10.7125 1.24414 8.4875V4.5375C1.24414 2.3125 1.71289 1.5 3.44414 1.30625C3.76914 1.2625 4.13164 1.25 4.53789 1.25Z" stroke="black" stroke-linecap="round" stroke-linejoin="round"/>
<path id="Vector_2" d="M4.49707 5.1875H4.5027M6.55957 5.1875H6.56519" stroke="black" stroke-linecap="round" stroke-linejoin="round"/>
</g>
</svg>
