<svg width="99" height="49" viewBox="0 0 99 49" fill="none" xmlns="http://www.w3.org/2000/svg">
<rect width="99" height="49" fill="#F5F5F5"/>
<g id="Emargement 1" clip-path="url(#clip0_0_1)">
<rect width="1440" height="1024" transform="translate(-46)" fill="white"/>
<g id="Panneau MM">
<g id="Group 160">
<rect id="Rectangle 4" x="-46" width="1440" height="139" fill="#FD9340"/>
<g id="Group 161">
<path id="Bonjour, Pr. Jamel" d="M46.584 61.48C47.8853 61.7573 48.9307 62.408 49.72 63.432C50.5093 64.4347 50.904 65.5867 50.904 66.888C50.904 68.7653 50.2427 70.2587 48.92 71.368C47.6187 72.456 45.7947 73 43.448 73H32.984V50.536H43.096C45.3787 50.536 47.16 51.0587 48.44 52.104C49.7413 53.1493 50.392 54.568 50.392 56.36C50.392 57.6827 50.04 58.7813 49.336 59.656C48.6533 60.5307 47.736 61.1387 46.584 61.48ZM38.456 59.624H42.04C42.936 59.624 43.6187 59.432 44.088 59.048C44.5787 58.6427 44.824 58.056 44.824 57.288C44.824 56.52 44.5787 55.9333 44.088 55.528C43.6187 55.1227 42.936 54.92 42.04 54.92H38.456V59.624ZM42.488 68.584C43.4053 68.584 44.1093 68.3813 44.6 67.976C45.112 67.5493 45.368 66.9413 45.368 66.152C45.368 65.3627 45.1013 64.744 44.568 64.296C44.056 63.848 43.3413 63.624 42.424 63.624H38.456V68.584H42.488ZM62.2058 73.256C60.4564 73.256 58.8778 72.8827 57.4698 72.136C56.0831 71.3893 54.9844 70.3227 54.1738 68.936C53.3844 67.5493 52.9898 65.928 52.9898 64.072C52.9898 62.2373 53.3951 60.6267 54.2057 59.24C55.0164 57.832 56.1258 56.7547 57.5338 56.008C58.9418 55.2613 60.5204 54.888 62.2698 54.888C64.0191 54.888 65.5978 55.2613 67.0058 56.008C68.4138 56.7547 69.5231 57.832 70.3338 59.24C71.1444 60.6267 71.5498 62.2373 71.5498 64.072C71.5498 65.9067 71.1338 67.528 70.3018 68.936C69.4911 70.3227 68.3711 71.3893 66.9418 72.136C65.5338 72.8827 63.9551 73.256 62.2058 73.256ZM62.2058 68.52C63.2511 68.52 64.1364 68.136 64.8618 67.368C65.6084 66.6 65.9818 65.5013 65.9818 64.072C65.9818 62.6427 65.6191 61.544 64.8938 60.776C64.1898 60.008 63.3151 59.624 62.2698 59.624C61.2031 59.624 60.3178 60.008 59.6138 60.776C58.9098 61.5227 58.5578 62.6213 58.5578 64.072C58.5578 65.5013 58.8991 66.6 59.5818 67.368C60.2858 68.136 61.1604 68.52 62.2058 68.52ZM85.3328 54.952C87.4234 54.952 89.0874 55.6347 90.3248 57C91.5834 58.344 92.2128 60.2 92.2128 62.568V73H86.7728V63.304C86.7728 62.1093 86.4634 61.1813 85.8448 60.52C85.2261 59.8587 84.3941 59.528 83.3488 59.528C82.3034 59.528 81.4714 59.8587 80.8528 60.52C80.2341 61.1813 79.9248 62.1093 79.9248 63.304V73H74.4528V55.144H79.9248V57.512C80.4794 56.7227 81.2261 56.104 82.1648 55.656C83.1034 55.1867 84.1594 54.952 85.3328 54.952ZM98.7352 53.288C97.7753 53.288 96.9859 53.0107 96.3673 52.456C95.7699 51.88 95.4713 51.176 95.4713 50.344C95.4713 49.4907 95.7699 48.7867 96.3673 48.232C96.9859 47.656 97.7753 47.368 98.7352 47.368C99.6739 47.368 100.442 47.656 101.039 48.232C101.658 48.7867 101.967 49.4907 101.967 50.344C101.967 51.176 101.658 51.88 101.039 52.456C100.442 53.0107 99.6739 53.288 98.7352 53.288ZM101.487 75.304C101.487 77.5013 100.933 79.08 99.8233 80.04C98.7139 81.0213 97.1673 81.512 95.1833 81.512H93.0392V76.872H94.3513C94.9486 76.872 95.3753 76.7547 95.6313 76.52C95.8873 76.2853 96.0153 75.9013 96.0153 75.368V55.144H101.487V75.304ZM113.55 73.256C111.8 73.256 110.222 72.8827 108.814 72.136C107.427 71.3893 106.328 70.3227 105.518 68.936C104.728 67.5493 104.334 65.928 104.334 64.072C104.334 62.2373 104.739 60.6267 105.549 59.24C106.36 57.832 107.47 56.7547 108.878 56.008C110.286 55.2613 111.864 54.888 113.614 54.888C115.363 54.888 116.942 55.2613 118.35 56.008C119.758 56.7547 120.867 57.832 121.678 59.24C122.488 60.6267 122.894 62.2373 122.894 64.072C122.894 65.9067 122.478 67.528 121.646 68.936C120.835 70.3227 119.715 71.3893 118.286 72.136C116.878 72.8827 115.299 73.256 113.55 73.256ZM113.55 68.52C114.595 68.52 115.48 68.136 116.206 67.368C116.952 66.6 117.326 65.5013 117.326 64.072C117.326 62.6427 116.963 61.544 116.238 60.776C115.534 60.008 114.659 59.624 113.614 59.624C112.547 59.624 111.662 60.008 110.958 60.776C110.254 61.5227 109.902 62.6213 109.902 64.072C109.902 65.5013 110.243 66.6 110.926 67.368C111.63 68.136 112.504 68.52 113.55 68.52ZM143.429 55.144V73H137.957V70.568C137.402 71.3573 136.645 71.9973 135.685 72.488C134.746 72.9573 133.701 73.192 132.549 73.192C131.183 73.192 129.978 72.8933 128.933 72.296C127.887 71.6773 127.077 70.792 126.501 69.64C125.925 68.488 125.637 67.1333 125.637 65.576V55.144H131.077V64.84C131.077 66.0347 131.386 66.9627 132.005 67.624C132.623 68.2853 133.455 68.616 134.501 68.616C135.567 68.616 136.41 68.2853 137.029 67.624C137.647 66.9627 137.957 66.0347 137.957 64.84V55.144H143.429ZM152.831 58.12C153.471 57.1387 154.271 56.3707 155.231 55.816C156.191 55.24 157.258 54.952 158.431 54.952V60.744H156.927C155.562 60.744 154.538 61.0427 153.855 61.64C153.172 62.216 152.831 63.24 152.831 64.712V73H147.359V55.144H152.831V58.12ZM166.935 67.944L163.383 77.128H159.895L161.751 67.944H166.935ZM194.135 57.768C194.135 59.0693 193.837 60.264 193.239 61.352C192.642 62.4187 191.725 63.2827 190.487 63.944C189.25 64.6053 187.714 64.936 185.879 64.936H182.487V73H177.015V50.536H185.879C187.671 50.536 189.186 50.8453 190.423 51.464C191.661 52.0827 192.589 52.936 193.207 54.024C193.826 55.112 194.135 56.36 194.135 57.768ZM185.463 60.584C186.509 60.584 187.287 60.3387 187.799 59.848C188.311 59.3573 188.567 58.664 188.567 57.768C188.567 56.872 188.311 56.1787 187.799 55.688C187.287 55.1973 186.509 54.952 185.463 54.952H182.487V60.584H185.463ZM202.456 58.12C203.096 57.1387 203.896 56.3707 204.856 55.816C205.816 55.24 206.883 54.952 208.056 54.952V60.744H206.552C205.187 60.744 204.163 61.0427 203.48 61.64C202.797 62.216 202.456 63.24 202.456 64.712V73H196.984V55.144H202.456V58.12ZM213.232 73.256C212.272 73.256 211.482 72.9787 210.864 72.424C210.266 71.848 209.968 71.144 209.968 70.312C209.968 69.4587 210.266 68.744 210.864 68.168C211.482 67.592 212.272 67.304 213.232 67.304C214.17 67.304 214.938 67.592 215.536 68.168C216.154 68.744 216.464 69.4587 216.464 70.312C216.464 71.144 216.154 71.848 215.536 72.424C214.938 72.9787 214.17 73.256 213.232 73.256ZM240.564 50.536V65.832C240.564 68.2 239.892 70.024 238.548 71.304C237.225 72.584 235.433 73.224 233.172 73.224C230.804 73.224 228.905 72.552 227.476 71.208C226.047 69.864 225.332 67.9547 225.332 65.48H230.772C230.772 66.4187 230.964 67.1333 231.348 67.624C231.732 68.0933 232.287 68.328 233.012 68.328C233.673 68.328 234.185 68.1147 234.548 67.688C234.911 67.2613 235.092 66.6427 235.092 65.832V50.536H240.564ZM243.896 64.04C243.896 62.2053 244.237 60.5947 244.92 59.208C245.624 57.8213 246.573 56.7547 247.768 56.008C248.963 55.2613 250.296 54.888 251.768 54.888C253.027 54.888 254.125 55.144 255.064 55.656C256.024 56.168 256.76 56.84 257.272 57.672V55.144H262.744V73H257.272V70.472C256.739 71.304 255.992 71.976 255.032 72.488C254.093 73 252.995 73.256 251.736 73.256C250.285 73.256 248.963 72.8827 247.768 72.136C246.573 71.368 245.624 70.2907 244.92 68.904C244.237 67.496 243.896 65.8747 243.896 64.04ZM257.272 64.072C257.272 62.7067 256.888 61.6293 256.12 60.84C255.373 60.0507 254.456 59.656 253.368 59.656C252.28 59.656 251.352 60.0507 250.584 60.84C249.837 61.608 249.464 62.6747 249.464 64.04C249.464 65.4053 249.837 66.4933 250.584 67.304C251.352 68.0933 252.28 68.488 253.368 68.488C254.456 68.488 255.373 68.0933 256.12 67.304C256.888 66.5147 257.272 65.4373 257.272 64.072ZM289.487 54.952C291.705 54.952 293.465 55.624 294.767 56.968C296.089 58.312 296.751 60.1787 296.751 62.568V73H291.311V63.304C291.311 62.152 291.001 61.2667 290.383 60.648C289.785 60.008 288.953 59.688 287.887 59.688C286.82 59.688 285.977 60.008 285.359 60.648C284.761 61.2667 284.463 62.152 284.463 63.304V73H279.023V63.304C279.023 62.152 278.713 61.2667 278.095 60.648C277.497 60.008 276.665 59.688 275.599 59.688C274.532 59.688 273.689 60.008 273.071 60.648C272.473 61.2667 272.175 62.152 272.175 63.304V73H266.703V55.144H272.175V57.384C272.729 56.6373 273.455 56.0507 274.351 55.624C275.247 55.176 276.26 54.952 277.391 54.952C278.735 54.952 279.929 55.24 280.975 55.816C282.041 56.392 282.873 57.2133 283.471 58.28C284.089 57.2987 284.932 56.4987 285.999 55.88C287.065 55.2613 288.228 54.952 289.487 54.952ZM317.41 63.784C317.41 64.296 317.378 64.8293 317.314 65.384H304.93C305.015 66.4933 305.367 67.3467 305.986 67.944C306.626 68.52 307.404 68.808 308.322 68.808C309.687 68.808 310.636 68.232 311.17 67.08H316.994C316.695 68.2533 316.151 69.3093 315.362 70.248C314.594 71.1867 313.623 71.9227 312.45 72.456C311.276 72.9893 309.964 73.256 308.514 73.256C306.764 73.256 305.207 72.8827 303.842 72.136C302.476 71.3893 301.41 70.3227 300.642 68.936C299.874 67.5493 299.49 65.928 299.49 64.072C299.49 62.216 299.863 60.5947 300.61 59.208C301.378 57.8213 302.444 56.7547 303.81 56.008C305.175 55.2613 306.743 54.888 308.514 54.888C310.242 54.888 311.778 55.2507 313.122 55.976C314.466 56.7013 315.511 57.736 316.258 59.08C317.026 60.424 317.41 61.992 317.41 63.784ZM311.81 62.344C311.81 61.4053 311.49 60.6587 310.85 60.104C310.21 59.5493 309.41 59.272 308.45 59.272C307.532 59.272 306.754 59.5387 306.114 60.072C305.495 60.6053 305.111 61.3627 304.962 62.344H311.81ZM325.769 49.32V73H320.297V49.32H325.769Z" fill="white"/>
</g>
<g id="Mask group">
<mask id="mask0_0_1" style="mask-type:alpha" maskUnits="userSpaceOnUse" x="-46" y="0" width="327" height="139">
<rect id="Rectangle 3" x="-46" width="327" height="139" fill="#FD9340"/>
</mask>
<g mask="url(#mask0_0_1)">
<circle id="Ellipse 133" opacity="0.4" cx="49.5" cy="-0.5" r="49.5" fill="#FEB47A"/>
<circle id="Ellipse 137" opacity="0.4" cx="49.5" cy="-0.5" r="49.5" fill="#FEB47A"/>
<circle id="Ellipse 134" opacity="0.4" cx="-58.5" cy="110.5" r="76.5" fill="#FEB47A"/>
</g>
</g>
</g>
</g>
</g>
<defs>
<clipPath id="clip0_0_1">
<rect width="1440" height="1024" fill="white" transform="translate(-46)"/>
</clipPath>
</defs>
</svg>
