<svg width="23" height="23" viewBox="0 0 23 23" fill="none" xmlns="http://www.w3.org/2000/svg">
<g id="Group 164">
<path id="Vector" d="M10.3328 1.2605H8.25882C3.07395 1.2605 1 3.33445 1 8.51932V14.7412C1 19.926 3.07395 22 8.25882 22H14.4807C19.6655 22 21.7395 19.926 21.7395 14.7412V12.6672" stroke="black" stroke-width="1.5" stroke-linecap="round" stroke-linejoin="round"/>
<path id="Vector_2" d="M15.5588 2.31823L7.38748 10.4896C7.07639 10.8007 6.7653 11.4125 6.70308 11.8584L6.25718 14.9797C6.09126 16.11 6.88974 16.8981 8.02004 16.7425L11.1413 16.2966C11.5769 16.2344 12.1887 15.9233 12.5101 15.6122L20.6815 7.44089C22.0918 6.0306 22.7554 4.39218 20.6815 2.31823C18.6075 0.244283 16.9691 0.907947 15.5588 2.31823V2.31823Z" stroke="black" stroke-width="1.5" stroke-miterlimit="10" stroke-linecap="round" stroke-linejoin="round"/>
<path id="Vector_3" d="M14.3877 3.48999C14.7315 4.71099 15.3832 5.82325 16.2801 6.72021C17.1771 7.61718 18.2893 8.26879 19.5103 8.61264" stroke="black" stroke-width="1.5" stroke-miterlimit="10" stroke-linecap="round" stroke-linejoin="round"/>
</g>
</svg>
