<svg width="14" height="15" viewBox="0 0 14 15" fill="none" xmlns="http://www.w3.org/2000/svg">
<path id="Vector" d="M12.5533 14.0151C12.5533 11.4967 10.0252 9.45984 6.91264 9.45984C3.80009 9.45984 1.27197 11.4967 1.27197 14.0151M6.91264 7.50757C7.78342 7.50757 8.61853 7.16476 9.23426 6.55456C9.85 5.94435 10.1959 5.11674 10.1959 4.25378C10.1959 3.39083 9.85 2.56321 9.23426 1.95301C8.61853 1.34281 7.78342 1 6.91264 1C6.04186 1 5.20675 1.34281 4.59101 1.95301C3.97528 2.56321 3.62936 3.39083 3.62936 4.25378C3.62936 5.11674 3.97528 5.94435 4.59101 6.55456C5.20675 7.16476 6.04186 7.50757 6.91264 7.50757V7.50757Z" stroke="black" stroke-width="1.5" stroke-linecap="round" stroke-linejoin="round"/>
</svg>
