<svg width="18" height="19" viewBox="0 0 18 19" fill="none" xmlns="http://www.w3.org/2000/svg">
<g id="Iconsax/Linear/useredit" clip-path="url(#clip0_15_2543)">
<path id="Vector" d="M9 9.45919C9.99456 9.45919 10.9484 9.04395 11.6516 8.3048C12.3549 7.56566 12.75 6.56317 12.75 5.51786C12.75 4.47256 12.3549 3.47007 11.6516 2.73093C10.9484 1.99178 9.99456 1.57654 9 1.57654C8.00544 1.57654 7.05161 1.99178 6.34835 2.73093C5.64509 3.47007 5.25 4.47256 5.25 5.51786C5.25 6.56317 5.64509 7.56566 6.34835 8.3048C7.05161 9.04395 8.00544 9.45919 9 9.45919V9.45919Z" stroke="black" stroke-width="1.5" stroke-linecap="round" stroke-linejoin="round"/>
<path id="Vector_2" d="M14.4073 12.4073L11.7523 15.1978C11.6473 15.3081 11.5498 15.5131 11.5273 15.6629L11.3848 16.727C11.3323 17.1133 11.5873 17.3813 11.9548 17.3261L12.9673 17.1763C13.1098 17.1527 13.3123 17.0502 13.4098 16.9398L16.0648 14.1494C16.5223 13.6685 16.7398 13.1089 16.0648 12.3994C15.3973 11.6979 14.8648 11.9265 14.4073 12.4073Z" stroke="black" stroke-width="0.5" stroke-miterlimit="10" stroke-linecap="round" stroke-linejoin="round"/>
<path id="Vector_3" d="M14.0249 12.8093C14.2499 13.6607 14.8799 14.3228 15.6899 14.5593" stroke="black" stroke-width="0.5" stroke-miterlimit="10" stroke-linecap="round" stroke-linejoin="round"/>
<path id="Vector_4" d="M2.55762 17.3418C2.55762 14.2912 5.44512 11.824 9.00012 11.824C9.78012 11.824 10.5301 11.9422 11.2276 12.1629" stroke="black" stroke-width="1.5" stroke-linecap="round" stroke-linejoin="round"/>
</g>
<defs>
<clipPath id="clip0_15_2543">
<rect width="18" height="18.9184" fill="white"/>
</clipPath>
</defs>
</svg>
