<svg width="15" height="13" viewBox="0 0 15 13" fill="none" xmlns="http://www.w3.org/2000/svg">
<g id="2 User">
<path id="2 Friends" fill-rule="evenodd" clip-rule="evenodd" d="M9.06717 3.49838C9.06717 5.37104 7.53475 6.87175 5.62253 6.87175C3.71099 6.87175 2.17788 5.37104 2.17788 3.49838C2.17788 1.62571 3.71099 0.125 5.62253 0.125C7.53475 0.125 9.06717 1.62571 9.06717 3.49838ZM0.416748 10.6915C0.416748 8.95795 2.81483 8.52423 5.62253 8.52423C8.44547 8.52423 10.8283 8.97288 10.8283 10.7078C10.8283 12.4413 8.43022 12.875 5.62253 12.875C2.79958 12.875 0.416748 12.4263 0.416748 10.6915ZM10.4563 3.55953C10.4563 4.51317 10.1638 5.40301 9.65089 6.14216C9.59752 6.21818 9.64465 6.32068 9.73752 6.33697C9.86644 6.35801 9.99882 6.3709 10.134 6.37362C11.4786 6.40823 12.6852 5.56048 13.0186 4.28375C13.5128 2.38937 12.0628 0.688428 10.2158 0.688428C10.0155 0.688428 9.82347 0.708791 9.63633 0.746122C9.61069 0.751552 9.58296 0.763769 9.5691 0.785489C9.55108 0.813318 9.56425 0.849291 9.58227 0.873048C10.1374 1.63528 10.4563 2.56313 10.4563 3.55953ZM12.6831 7.70579C13.5869 7.87888 14.1809 8.23115 14.4269 8.74496C14.6356 9.16578 14.6356 9.65448 14.4269 10.0753C14.0506 10.8708 12.8363 11.1267 12.3643 11.1925C12.2666 11.2061 12.1883 11.1246 12.1987 11.0283C12.4399 8.82369 10.5221 7.77842 10.0258 7.53814C10.0051 7.52661 10.0002 7.51032 10.0023 7.49946C10.0037 7.49267 10.0127 7.48181 10.0286 7.47977C11.1022 7.45941 12.2569 7.60398 12.6831 7.70579Z" fill="#130F26"/>
</g>
</svg>
