<svg width="18" height="19" viewBox="0 0 18 19" fill="none" xmlns="http://www.w3.org/2000/svg">
<g id="Iconsax/Linear/calendar" clip-path="url(#clip0_15_2538)">
<path id="Vector" d="M6 1.57654V3.94133M12 1.57654V3.94133M2.625 7.16534H15.375M15.75 6.70026V13.4005C15.75 15.7653 14.625 17.3418 12 17.3418H6C3.375 17.3418 2.25 15.7653 2.25 13.4005V6.70026C2.25 4.33547 3.375 2.75894 6 2.75894H12C14.625 2.75894 15.75 4.33547 15.75 6.70026Z" stroke="black" stroke-width="1.5" stroke-miterlimit="10" stroke-linecap="round" stroke-linejoin="round"/>
<path id="Vector_2" d="M11.7715 10.7992H11.7782M11.7715 13.164H11.7782M8.99645 10.7992H9.00395M8.99645 13.164H9.00395M6.2207 10.7992H6.2282M6.2207 13.164H6.2282" stroke="black" stroke-width="2" stroke-linecap="round" stroke-linejoin="round"/>
</g>
<defs>
<clipPath id="clip0_15_2538">
<rect width="18" height="18.9184" fill="white"/>
</clipPath>
</defs>
</svg>
