<svg width="15" height="16" viewBox="0 0 15 16" fill="none" xmlns="http://www.w3.org/2000/svg">
<g id="Group 223">
<path id="Vector" d="M4.68056 1V3.17485M10.5694 1V3.17485M14.066 12.3092H1.18403M10.5694 2.08743C13.0207 2.21792 14.25 3.1386 14.25 6.54587V11.0261C14.25 14.0129 13.5139 15.5062 9.83333 15.5062H5.41667C1.73611 15.5062 1 14.0129 1 11.0261V6.54587C1 3.1386 2.22931 2.22517 4.68056 2.08743H10.5694Z" stroke="black" stroke-miterlimit="10" stroke-linecap="round" stroke-linejoin="round"/>
<path id="Vector_2" d="M7.625 4C6.36425 4 5.29825 4.61045 5.29825 5.79491C5.29825 6.35981 5.5955 6.78804 6.0465 7.06137C5.42125 7.38938 5.0625 7.91783 5.0625 8.53739C5.0625 9.66718 6.03625 10.3687 7.625 10.3687C9.2035 10.3687 10.1875 9.66718 10.1875 8.53739C10.1875 7.91783 9.82875 7.38027 9.19325 7.06137C9.6545 6.77892 9.9415 6.35981 9.9415 5.79491C9.9415 4.61045 8.88575 4 7.625 4ZM7.625 6.58759C7.092 6.58759 6.7025 6.30514 6.7025 5.85869C6.7025 5.40313 7.092 5.1389 7.625 5.1389C8.158 5.1389 8.5475 5.40313 8.5475 5.85869C8.5475 6.30514 8.158 6.58759 7.625 6.58759ZM7.625 9.23896C6.9485 9.23896 6.4565 8.93829 6.4565 8.39161C6.4565 7.84494 6.9485 7.55338 7.625 7.55338C8.3015 7.55338 8.7935 7.85405 8.7935 8.39161C8.7935 8.93829 8.3015 9.23896 7.625 9.23896Z" fill="black"/>
</g>
</svg>
