<svg width="15" height="15" viewBox="0 0 15 15" fill="none" xmlns="http://www.w3.org/2000/svg">
<g id="Iconsax/Linear/keyboardopen" clip-path="url(#clip0_64_878)">
<path id="Vector" d="M8.4875 5.2H10.7875M4.21249 8.81875H10.7937M4.37499 13.75H10.625M4.53749 1.25H10.4562C10.8625 1.25 11.225 1.2625 11.55 1.30625C13.2812 1.5 13.75 2.3125 13.75 4.5375V8.4875C13.75 10.7125 13.2812 11.525 11.55 11.7188C11.225 11.7625 10.8687 11.775 10.4562 11.775H4.53749C4.13124 11.775 3.76874 11.7625 3.44374 11.7188C1.71249 11.525 1.24374 10.7125 1.24374 8.4875V4.5375C1.24374 2.3125 1.71249 1.5 3.44374 1.30625C3.76874 1.2625 4.13124 1.25 4.53749 1.25Z" stroke="black" stroke-linecap="round" stroke-linejoin="round"/>
<path id="Vector_2" d="M4.49689 5.1875H4.50251M6.55939 5.1875H6.56501" stroke="black" stroke-linecap="round" stroke-linejoin="round"/>
</g>
<defs>
<clipPath id="clip0_64_878">
<rect width="15" height="15" fill="white"/>
</clipPath>
</defs>
</svg>
