<svg width="17" height="17" viewBox="0 0 17 17" fill="none" xmlns="http://www.w3.org/2000/svg">
<g id="Iconsax/Linear/note">
<path id="Vector" d="M14.1667 5.84377V12.75C14.1667 14.875 12.8988 15.5834 11.3333 15.5834H5.66668C4.10126 15.5834 2.83334 14.875 2.83334 12.75V5.84377C2.83334 3.54169 4.10126 3.01044 5.66668 3.01044C5.66668 3.4496 5.84376 3.84627 6.13418 4.13669C6.42459 4.4271 6.82126 4.60419 7.26043 4.60419H9.73959C10.6179 4.60419 11.3333 3.88877 11.3333 3.01044C12.8988 3.01044 14.1667 3.54169 14.1667 5.84377Z" stroke="black" stroke-linecap="round" stroke-linejoin="round"/>
<path id="Vector_2" d="M5.66666 9.20835H8.49999M5.66666 12.0417H11.3333M11.3333 3.01044C11.3333 3.88877 10.6179 4.60419 9.73957 4.60419H7.26041C6.82124 4.60419 6.42457 4.4271 6.13416 4.13669C5.84374 3.84627 5.66666 3.4496 5.66666 3.01044C5.66666 2.1321 6.38207 1.41669 7.26041 1.41669H9.73957C10.1787 1.41669 10.5754 1.59377 10.8658 1.88419C11.1562 2.1746 11.3333 2.57127 11.3333 3.01044Z" stroke="black" stroke-linecap="round" stroke-linejoin="round"/>
</g>
</svg>
