<svg width="39" height="38" viewBox="0 0 39 38" fill="none" xmlns="http://www.w3.org/2000/svg">
<g id="Group 184">
<g id="Group 179">
<g id="Group 168">
<g id="Group 166">
<g id="Rectangle 176" filter="url(#filter0_d_15_2346)">
<path d="M4.89648 15C4.89648 6.71573 11.6122 0 19.8965 0C28.1808 0 34.8965 6.71573 34.8965 15C34.8965 23.2843 28.1808 30 19.8965 30C11.6122 30 4.89648 23.2843 4.89648 15Z" fill="white"/>
</g>
</g>
</g>
<path id="Vector" d="M13 22.6966C13 19.6593 16.049 17.2028 19.8028 17.2028M27.7222 22.6966L26.9303 21.9118M19.8028 14.8483C20.853 14.8483 21.8602 14.4349 22.6027 13.6989C23.3453 12.963 23.7625 11.9649 23.7625 10.9242C23.7625 9.8834 23.3453 8.88528 22.6027 8.14936C21.8602 7.41344 20.853 7 19.8028 7C18.7526 7 17.7454 7.41344 17.0029 8.14936C16.2603 8.88528 15.8431 9.8834 15.8431 10.9242C15.8431 11.9649 16.2603 12.963 17.0029 13.6989C17.7454 14.4349 18.7526 14.8483 19.8028 14.8483ZM24.7129 22.2257C25.385 22.2257 26.0296 21.9611 26.5048 21.4901C26.9801 21.0191 27.2471 20.3803 27.2471 19.7143C27.2471 19.0482 26.9801 18.4094 26.5048 17.9384C26.0296 17.4674 25.385 17.2028 24.7129 17.2028C24.0407 17.2028 23.3961 17.4674 22.9209 17.9384C22.4456 18.4094 22.1786 19.0482 22.1786 19.7143C22.1786 20.3803 22.4456 21.0191 22.9209 21.4901C23.3961 21.9611 24.0407 22.2257 24.7129 22.2257Z" stroke="black" stroke-width="1.5" stroke-linecap="round" stroke-linejoin="round"/>
</g>
</g>
<defs>
<filter id="filter0_d_15_2346" x="0.896484" y="0" width="38" height="38" filterUnits="userSpaceOnUse" color-interpolation-filters="sRGB">
<feFlood flood-opacity="0" result="BackgroundImageFix"/>
<feColorMatrix in="SourceAlpha" type="matrix" values="0 0 0 0 0 0 0 0 0 0 0 0 0 0 0 0 0 0 127 0" result="hardAlpha"/>
<feOffset dy="4"/>
<feGaussianBlur stdDeviation="2"/>
<feComposite in2="hardAlpha" operator="out"/>
<feColorMatrix type="matrix" values="0 0 0 0 0 0 0 0 0 0 0 0 0 0 0 0 0 0 0.25 0"/>
<feBlend mode="normal" in2="BackgroundImageFix" result="effect1_dropShadow_15_2346"/>
<feBlend mode="normal" in="SourceGraphic" in2="effect1_dropShadow_15_2346" result="shape"/>
</filter>
</defs>
</svg>
