<svg width="17" height="17" viewBox="0 0 17 17" fill="none" xmlns="http://www.w3.org/2000/svg">
<path id="Vector" d="M12.0314 2.51488C13.5529 2.51488 14.7765 3.70363 14.7765 5.16496C14.7765 6.596 13.6 7.76204 12.1333 7.81504C12.0656 7.80746 11.9972 7.80746 11.9294 7.81504M13.5451 14.6295C14.1098 14.516 14.6431 14.2964 15.0824 13.9708C16.3059 13.0849 16.3059 11.6236 15.0824 10.7377C14.651 10.4197 14.1255 10.2077 13.5686 10.0865M6.3451 7.71661C6.26667 7.70903 6.17255 7.70903 6.08627 7.71661C5.18604 7.6871 4.33305 7.32049 3.70794 6.6944C3.08284 6.06832 2.7347 5.23193 2.73726 4.36236C2.73726 2.50731 4.2902 1.00055 6.21961 1.00055C7.14215 0.984482 8.03351 1.32287 8.69761 1.94126C9.36171 2.55965 9.74414 3.4074 9.76078 4.298C9.77743 5.18861 9.42691 6.04912 8.78634 6.69023C8.14578 7.33134 7.26764 7.70054 6.3451 7.71661ZM2.42353 10.5105C0.52549 11.7372 0.52549 13.7361 2.42353 14.9551C4.58039 16.3483 8.11765 16.3483 10.2745 14.9551C12.1725 13.7285 12.1725 11.7296 10.2745 10.5105C8.12549 9.12494 4.58824 9.12494 2.42353 10.5105V10.5105Z" stroke="black" stroke-linecap="round" stroke-linejoin="round"/>
</svg>
